<svg xmlns="http://www.w3.org/2000/svg" fill="#cecece" viewBox="0 0 12 12" width="12" height="12">
	<path fill-rule="evenodd" class="shp0" d="M1.76 10.24C-0.59 7.9 -0.59 4.1 1.76 1.76C4.1 -0.59 7.9 -0.59 10.24 1.76C12.59 4.1 12.59 7.9 10.24 10.24C7.9 12.59 4.1 12.59 1.76 10.24ZM9.18 2.82C7.42 1.06 4.58 1.06 2.82 2.82C1.06 4.58 1.06 7.42 2.82 9.18C4.58 10.94 7.42 10.94 9.18 9.18C10.94 7.42 10.94 4.58 9.18 2.82ZM4.41 8.65L3.35 7.59L4.94 6L3.35 4.41L4.41 3.35L6 4.94L7.59 3.35L8.65 4.41L7.06 6L8.65 7.59L7.59 8.65L6 7.06L4.41 8.65Z" />
</svg>
