<?xml version="1.0" encoding="UTF-8"?>
<svg width="25px" height="25px" viewBox="0 0 25 25" version="1.1" xmlns="http://www.w3.org/2000/svg" xmlns:xlink="http://www.w3.org/1999/xlink">
    <!-- Generator: sketchtool 56.3 (101010) - https://sketch.com -->
    <title>F6B47478-94C5-4A64-8CFE-6027662C470A</title>
    <desc>Created with sketchtool.</desc>
    <g stroke="none" stroke-width="1" fill="none" fill-rule="evenodd">
        <g transform="translate(-1233.000000, -146.000000)">
            <g transform="translate(63.000000, 40.000000)">
                <g transform="translate(1170.000000, 106.000000)">
                    <circle stroke="#E6E6E6" cx="12.5" cy="12.5" r="12"></circle>
                    <path d="M15.7350352,12.4988322 C15.7350352,14.2932379 14.2856049,15.747891 12.4976421,15.747891 C10.7096793,15.747891 9.26024899,14.2932379 9.26024899,12.4988322 C9.25780884,12.2894452 9.27863455,12.0804377 9.32234029,11.8756818 L7.14285714,11.8756818 L7.14285714,16.1817299 C7.14502518,17.1089022 7.89547802,17.8588813 8.81932218,17.8571398 L16.1814638,17.8571398 C17.1048226,17.8580106 17.8545423,17.1084127 17.8571429,16.1817299 L17.8571429,11.8756818 L15.6737299,11.8756818 C15.7144589,12.0798036 15.734733,12.2875034 15.7342492,12.495677 L15.7350352,12.4988322 Z M16.1814638,7.14287542 L8.81932218,7.14287542 C8.37569258,7.14079665 7.94949323,7.31608614 7.6349126,7.63002416 C7.32033198,7.94396219 7.14327015,8.37070158 7.14285714,8.81593451 L7.14285714,10.6301698 L9.85050931,10.6301698 C10.4599679,9.77094975 11.4459484,9.26071636 12.4968561,9.26071636 C13.5477638,9.26071636 14.5337444,9.77094975 15.143203,10.6301698 L17.854785,10.6301698 L17.854785,8.81593451 C17.8526169,7.89037769 17.103699,7.14158542 16.1814638,7.14287542 L16.1814638,7.14287542 Z M17.002798,9.20717831 C17.002798,9.3733719 16.8697139,9.50870716 16.704131,9.51086552 L15.8018423,9.51086552 C15.6350801,9.51000281 15.5001051,9.37454147 15.4992455,9.20717831 L15.4992455,8.30952622 C15.502254,8.14422019 15.6371047,8.01204725 15.8018423,8.01293371 L16.7017731,8.01293371 C16.8655024,8.01293371 16.9987167,8.1452161 17.0004401,8.30952622 L17.002798,9.20717831 Z M14.4877089,12.4988322 C14.4886615,11.69042 14.0041263,10.9610916 13.2601756,10.6511357 C12.5162249,10.3411798 11.6594761,10.5116824 11.0896693,11.0830907 C10.5198626,11.6544989 10.3492953,12.5142 10.6575503,13.2610762 C10.9658053,14.0079524 11.692132,14.4948097 12.4976421,14.4944917 C13.0252957,14.4949097 13.5314807,14.2848382 13.9047356,13.9105342 C14.2779905,13.5362302 14.4877089,13.0283873 14.4877089,12.4988322 L14.4877089,12.4988322 Z" fill="#FFFFFF" fill-rule="nonzero"></path>
                </g>
            </g>
        </g>
    </g>
</svg>
