<?xml version="1.0" encoding="UTF-8"?>
<svg width="25px" height="25px" viewBox="0 0 25 25" version="1.1" xmlns="http://www.w3.org/2000/svg" xmlns:xlink="http://www.w3.org/1999/xlink">
    <!-- Generator: sketchtool 55.2 (78181) - https://sketchapp.com -->
    <title>58A44C46-3B07-4CB8-AC49-3FB10CF40B21</title>
    <desc>Created with sketchtool.</desc>
    <g stroke="none" stroke-width="1" fill="none" fill-rule="evenodd">
        <g transform="translate(-502.000000, -953.000000)">
            <g transform="translate(502.000000, 953.000000)">
                <circle stroke="#E6E6E6" cx="12.5" cy="12.5" r="12"></circle>
                <path d="M7.14285714,12.4999372 C7.14285714,14.6935435 8.46196471,16.5780344 10.349555,17.4065692 C10.3344881,17.0325002 10.3468764,16.5834333 10.4428024,16.1764271 C10.5458014,15.7415478 11.1321133,13.2573663 11.1321133,13.2573663 C11.1321133,13.2573663 10.9609784,12.9153137 10.9609784,12.409789 C10.9609784,11.6159073 11.4211049,11.0229966 11.9941496,11.0229966 C12.4814384,11.0229966 12.7168588,11.3889882 12.7168588,11.8272575 C12.7168588,12.3170879 12.4044298,13.0497827 12.243758,13.7284053 C12.109537,14.2966654 12.5286899,14.7601712 13.0893043,14.7601712 C14.1043115,14.7601712 14.7879305,13.4565377 14.7879305,11.911965 C14.7879305,10.7378621 13.9971272,9.85906356 12.5587819,9.85906356 C10.9337324,9.85906356 9.92136191,11.0709166 9.92136191,12.4245626 C9.92136191,12.8912909 10.058973,13.2204114 10.2745134,13.4752872 C10.3736202,13.592346 10.3873897,13.6394289 10.3515221,13.7738561 C10.3258246,13.8724164 10.2668126,14.1097146 10.2423707,14.203755 C10.2067124,14.3394377 10.0967658,14.3879436 9.97413794,14.3378473 C9.22564756,14.0322893 8.87705796,13.212627 8.87705796,12.2912236 C8.87705796,10.76946 10.1605072,8.9447331 12.7058097,8.9447331 C14.7511422,8.9447331 16.0973283,10.4247708 16.0973283,12.0134968 C16.0973283,14.1149879 14.9289735,15.6849645 13.2067425,15.6849645 C12.6283826,15.6849645 12.0843417,15.3723336 11.8979725,15.0172233 C11.8979725,15.0172233 11.5869665,16.2515087 11.5210906,16.4898532 C11.4075029,16.902886 11.1851823,17.3157096 10.9819046,17.6374642 C11.4637108,17.7796757 11.9726792,17.8571429 12.5001883,17.8571429 C15.4584915,17.8571429 17.8571429,15.4586733 17.8571429,12.4999372 C17.8571429,9.54132672 15.4584915,7.14285714 12.5001883,7.14285714 C9.54159219,7.14285714 7.14285714,9.54132672 7.14285714,12.4999372 Z" fill="#FFFFFF" fill-rule="nonzero"></path>
            </g>
        </g>
    </g>
</svg>
