<?xml version="1.0" encoding="UTF-8"?>
<svg width="25px" height="25px" viewBox="0 0 25 25" version="1.1" xmlns="http://www.w3.org/2000/svg" xmlns:xlink="http://www.w3.org/1999/xlink">
    <!-- Generator: sketchtool 56.3 (101010) - https://sketch.com -->
    <title>68D5456B-F513-4671-BE38-A5A77AE33BA9</title>
    <desc>Created with sketchtool.</desc>
    <g stroke="none" stroke-width="1" fill="none" fill-rule="evenodd">
        <g transform="translate(-1278.000000, -146.000000)">
            <g transform="translate(63.000000, 40.000000)">
                <g transform="translate(1215.000000, 106.000000)">
                    <circle stroke="#E6E6E6" cx="12.5" cy="12.5" r="12"></circle>
                    <path d="M17.8571429,8.95650697 C17.4545878,9.14376708 17.0284866,9.26862796 16.5920642,9.32721431 C17.0534347,9.03392301 17.3972026,8.57270013 17.5585787,8.03047124 C17.128386,8.30247507 16.6573407,8.49498994 16.1657424,8.59971947 C15.5496867,7.89667052 14.5866774,7.66701305 13.7439494,8.02217274 C12.9012214,8.37733242 12.3531487,9.24382097 12.3656461,10.2012338 C12.3639125,10.3806846 12.3809104,10.5597912 12.4163326,10.7353161 C10.6442726,10.6398213 8.99603822,9.74732001 7.88926743,8.28395887 C7.69350813,8.6441729 7.58990127,9.05191416 7.58862031,9.46714534 C7.58813458,10.2476253 7.95364279,10.9778077 8.56485553,11.4173883 C8.21663089,11.4050942 7.87632032,11.3045829 7.5726506,11.124339 L7.5726506,11.1499808 C7.56968883,12.25981 8.30357324,13.2202648 9.33209587,13.4526156 C9.14426444,13.5062533 8.95038043,13.5326263 8.7557977,13.5310062 C8.61590207,13.5331803 8.47620172,13.5191769 8.33919661,13.4892467 C8.62510257,14.4380574 9.44778732,15.0928406 10.390957,15.1222638 C9.61616512,15.7702556 8.65643716,16.1226952 7.66777452,16.1222945 C7.49234899,16.1234228 7.31703003,16.1129011 7.14285714,16.0907917 C8.14500479,16.780209 9.31613516,17.145855 10.5124656,17.1428571 C12.1819084,17.1428571 13.7819838,16.4382178 14.9559182,15.1857855 C16.1298527,13.9333533 16.7800314,12.2373604 16.761482,10.4759675 C16.761482,10.3712024 16.761482,10.2715656 16.75315,10.1741267 C17.1866592,9.84146429 17.5597099,9.4289802 17.8543655,8.95650697" fill="#000000" fill-rule="nonzero"></path>
                </g>
            </g>
        </g>
    </g>
</svg>
