<?xml version="1.0" encoding="UTF-8"?>
<svg width="38px" height="39px" viewBox="0 0 38 39" version="1.1" xmlns="http://www.w3.org/2000/svg" xmlns:xlink="http://www.w3.org/1999/xlink">
    <!-- Generator: sketchtool 58 (101010) - https://sketch.com -->
    <title>C07246AE-F2EA-4E96-B140-034621F6B9E3</title>
    <desc>Created with sketchtool.</desc>
    <g stroke="none" stroke-width="1" fill="none" fill-rule="evenodd">
        <g transform="translate(-504.000000, -1122.000000)" fill="#FFFFFF">
            <g transform="translate(525.500000, 1144.000000) rotate(-45.000000) translate(-525.500000, -1144.000000) translate(508.000000, 1121.000000)">
                <path d="M17.5,-7.10542736e-15 C27.1649831,-7.10542736e-15 35,7.83501688 35,17.5 C35,26.9978952 27.4335445,34.72855 17.999592,34.993006 L18,45.5 C18,45.7761424 17.7761424,46 17.5,46 C17.2238576,46 17,45.7761424 17,45.5 L16.9994102,34.992978 C7.56592197,34.7280049 -7.10542736e-15,26.9975603 -7.10542736e-15,17.5 C-7.10542736e-15,7.83501688 7.83501688,-7.10542736e-15 17.5,-7.10542736e-15 Z M17.5,1 C8.38730163,1 1,8.38730163 1,17.5 C1,26.6126984 8.38730163,34 17.5,34 C26.6126984,34 34,26.6126984 34,17.5 C34,8.38730163 26.6126984,1 17.5,1 Z M13.9644661,13.7573593 L17.5,17.293 L21.0355339,13.7573593 C21.2307961,13.5620972 21.5473785,13.5620972 21.7426407,13.7573593 C21.9379028,13.9526215 21.9379028,14.2692039 21.7426407,14.4644661 L18.207,18 L21.7426407,21.5355339 C21.9379028,21.7307961 21.9379028,22.0473785 21.7426407,22.2426407 C21.5473785,22.4379028 21.2307961,22.4379028 21.0355339,22.2426407 L17.5,18.707 L13.9644661,22.2426407 C13.7692039,22.4379028 13.4526215,22.4379028 13.2573593,22.2426407 C13.0620972,22.0473785 13.0620972,21.7307961 13.2573593,21.5355339 L16.793,18 L13.2573593,14.4644661 C13.0620972,14.2692039 13.0620972,13.9526215 13.2573593,13.7573593 C13.4526215,13.5620972 13.7692039,13.5620972 13.9644661,13.7573593 Z"></path>
            </g>
        </g>
    </g>
</svg>
